<svg class="h-7" width="106" height="24" viewBox="0 0 371 84" fill="none" xmlns="http://www.w3.org/2000/svg"><path fill-rule="evenodd" clip-rule="evenodd" d="M15.5826 56.8694C20.3585 59.5734 25.7042 60.9254 31.6194 60.9254C37.612 60.9254 42.9956 59.5734 47.7703 56.8694C52.4301 54.2824 56.3154 50.5134 59.0304 45.9474C61.8374 41.3654 63.2404 36.2214 63.2384 30.5144C63.2374 24.8074 61.8344 19.6631 59.0304 15.0814C56.3014 10.4281 52.5102 6.7495 47.6582 4.0458C42.8796 1.3486 37.5333 0 31.6194 0C25.7055 0 20.3218 1.3512 15.4685 4.0536C10.771 6.6802 6.8496 10.4855 4.0962 15.0892C1.3641 19.6696 -0.00129907 24.814 9.27417e-07 30.5224C0.00130093 36.2304 1.4041 41.3744 4.2083 45.9554C6.9892 50.5064 10.9074 54.2664 15.5826 56.8694ZM24.8802 10.557C24.4142 10.5552 23.9524 10.6448 23.5214 10.8207C23.0903 10.9966 22.6985 11.2554 22.3683 11.5821C22.0382 11.9088 21.7762 12.297 21.5975 12.7245C21.4187 13.1521 21.3267 13.6104 21.3267 14.0734V45.7504C21.3267 46.2134 21.4187 46.6714 21.5975 47.0994C21.7762 47.5264 22.0382 47.9144 22.3683 48.2414C22.6985 48.5684 23.0903 48.8264 23.5214 49.0024C23.9524 49.1784 24.4142 49.2684 24.8802 49.2664H39.098C39.5642 49.2684 40.0262 49.1794 40.4574 49.0034C40.8887 48.8274 41.2808 48.5684 41.6111 48.2424C41.9415 47.9154 42.2036 47.5274 42.3825 47.0994C42.5614 46.6714 42.6535 46.2134 42.6535 45.7504V14.0773C42.6535 13.6142 42.5614 13.1556 42.3825 12.728C42.2036 12.3003 41.9415 11.912 41.6111 11.5853C41.2808 11.2585 40.8887 10.9999 40.4574 10.8241C40.0262 10.6483 39.5642 10.5588 39.098 10.5609L24.8802 10.557Z" fill="#01120D"></path><path d="M67.2504 60.0104V1.12939H82.7394V5.9891C87.1884 1.9964 92.6894 0 99.2434 0C103.84 0 107.873 1.0174 111.34 3.0522C114.827 4.9528 117.692 7.8168 119.594 11.3021C121.555 14.7686 122.535 18.8369 122.535 23.507V60.0104H107.046V25.7678C107.046 21.9235 105.953 18.9098 103.767 16.7265C101.579 14.465 98.6014 13.3349 94.8334 13.3363C92.1964 13.3363 89.8604 13.8665 87.8244 14.927C85.7924 15.9054 84.0414 17.3831 82.7354 19.2219V60.0104H67.2504Z" fill="#01120D"></path><path d="M157.635 61.0264C151.756 61.0264 146.405 59.6704 141.581 56.9574C136.929 54.3404 133.034 50.5644 130.273 45.9954C127.489 41.4004 126.097 36.2394 126.097 30.5144C126.097 24.7888 127.416 19.6276 130.054 15.0304C132.707 10.4949 136.484 6.7195 141.02 4.0683C145.62 1.3561 150.746 0 156.397 0C162.048 0 167.06 1.3919 171.435 4.1757C175.809 6.9594 179.239 10.7261 181.723 15.4758C184.287 20.2228 185.568 25.61 185.566 31.6374V35.7054H141.919C142.581 38.0124 143.696 40.1634 145.198 42.0354C146.771 43.9114 148.741 45.4154 150.964 46.4414C153.309 47.5014 155.854 48.0434 158.427 48.0324C160.894 48.0624 163.346 47.6414 165.663 46.7894C167.806 46.0324 169.769 44.8394 171.429 43.2854L181.604 52.5534C177.987 55.4914 174.256 57.6384 170.411 58.9944C166.642 60.3484 162.384 61.0264 157.635 61.0264ZM141.692 24.6384H170.298C169.817 22.3994 168.81 20.3073 167.359 18.5359C166.053 16.7729 164.35 15.3423 162.388 14.3603C160.451 13.2896 158.269 12.7414 156.057 12.7696C153.784 12.7375 151.536 13.2409 149.495 14.239C147.533 15.221 145.83 16.6516 144.524 18.4146C143.239 20.1512 142.295 22.2251 141.692 24.6364V24.6384Z" fill="#01120D"></path><path d="M189.525 82.7254V0.791397H204.788V5.6511C209.612 1.885 215.19 0.0014 221.522 0C227.099 0 232.149 1.3568 236.672 4.0703C241.142 6.73 244.843 10.508 247.409 15.0324C250.123 19.5527 251.48 24.6384 251.48 30.2894C251.48 35.9404 250.124 41.0604 247.413 45.6494C244.737 50.1384 240.965 53.8734 236.451 56.5064C231.851 59.1444 226.725 60.4634 221.073 60.4634C218.209 60.4734 215.356 60.0924 212.594 59.3324C209.919 58.5224 207.369 57.3424 205.019 55.8284V82.7254H189.525ZM219.035 47.3534C222.276 47.3534 225.178 46.6004 227.74 45.0934C230.317 43.6454 232.464 41.5394 233.96 38.9904C235.467 36.4294 236.221 33.5294 236.221 30.2894C236.221 27.0496 235.467 24.1499 233.96 21.5901C232.507 19.0078 230.35 16.8914 227.74 15.4877C225.176 13.9805 222.275 13.2269 219.035 13.2269C216.327 13.1982 213.639 13.6973 211.121 14.6963C208.789 15.5956 206.699 17.0252 205.015 18.872V41.8164C206.738 43.5914 208.819 44.9784 211.121 45.8844C213.642 46.8694 216.328 47.3684 219.035 47.3534Z" fill="#01120D"></path><path d="M275.201 61.0344C270.979 61.0344 267.248 60.2814 264.008 58.7754C260.767 57.1924 258.242 55.0454 256.432 52.3324C254.623 49.6204 253.719 46.4944 253.72 42.9534C253.72 37.3024 255.831 32.9324 260.051 29.844C264.348 26.6785 270.227 25.0963 277.689 25.0977C282.612 25.0635 287.505 25.8657 292.16 27.4698V23.1749C292.16 19.7853 291.105 17.2243 288.995 15.4917C286.884 13.7591 283.794 12.8922 279.725 12.8909C277.236 12.8909 274.561 13.3051 271.697 14.1336C268.833 14.8879 265.519 16.0935 261.755 17.7505L256.102 6.3371C260.775 4.2267 265.222 2.6446 269.443 1.5908C273.659 0.542397 277.987 0.0083 282.331 0C290.247 0 296.39 1.9222 300.762 5.7664C305.208 9.5324 307.432 14.8813 307.433 21.8128V60.0184H292.168V55.8424C289.825 57.6154 287.183 58.9544 284.368 59.7974C281.388 60.6504 278.3 61.0674 275.201 61.0344ZM268.419 42.6154C268.419 44.8774 269.398 46.6854 271.357 48.0394C273.318 49.3204 275.918 49.9604 279.158 49.9604C281.563 49.9814 283.959 49.6774 286.282 49.0584C288.393 48.4174 290.381 47.4234 292.16 46.1194V37.5294C290.262 36.7704 288.293 36.2024 286.282 35.8334C284.117 35.4454 281.921 35.2564 279.721 35.2684C276.177 35.2684 273.388 35.9464 271.353 37.3024C269.396 38.5834 268.417 40.3544 268.419 42.6154Z" fill="#01120D"></path><path d="M316.792 83.1874C315.47 83.1894 314.149 83.1134 312.835 82.9604C311.812 82.9054 310.793 82.7924 309.783 82.6204V69.2864C311.573 69.6114 313.39 69.7624 315.209 69.7374C320.862 69.7374 324.782 67.0634 326.969 61.7144L327.874 59.4534L304.921 0H321.994L336.692 40.1204L353.311 0H370.046L342.91 63.6294C340.875 68.3764 338.651 72.1804 336.239 75.0424C333.826 77.9044 331.038 79.9764 327.874 81.2584C324.782 82.5454 321.089 83.1884 316.792 83.1874Z" fill="#01120D"></path></svg>